<?xml version="1.0" standalone="no"?>
<!DOCTYPE svg PUBLIC "-//W3C//DTD SVG 1.1//EN" "http://www.w3.org/Graphics/SVG/1.1/DTD/svg11.dtd">
<svg xmlns="http://www.w3.org/2000/svg" xmlns:xlink="http://www.w3.org/1999/xlink" width="1440" zoomAndPan="magnify" viewBox="0 0 1440 1439.999935" height="1439.9998779296875" preserveAspectRatio="xMidYMid meet" version="1.0"><path fill="#f2014b" d="M 224.5 543.222656 L 225.972656 543.613281 C 227.648438 544.0625 229.320312 544.519531 230.988281 544.984375 L 232.578125 545.421875 C 235.582031 546.285156 238.503906 547.375 241.339844 548.695312 C 242.652344 549.289062 243.976562 549.75 245.359375 550.160156 C 247.414062 550.820312 249.078125 551.667969 250.910156 552.824219 L 252.75 553.574219 C 258.246094 555.882812 263.082031 559.269531 267.726562 562.960938 C 269.144531 563.964844 270.328125 564.636719 271.882812 565.347656 C 274.539062 566.625 276.339844 568.394531 278.332031 570.53125 C 278.984375 571.214844 279.636719 571.894531 280.292969 572.574219 L 281.222656 573.546875 C 282.21875 574.558594 282.21875 574.558594 283.859375 575.800781 L 285.125 576.832031 L 285.125 578.03125 L 286.136719 578.445312 C 293.957031 582.886719 299.960938 593.574219 304.949219 600.925781 C 305.878906 602.269531 306.839844 603.539062 307.859375 604.816406 C 309.320312 607.136719 309.8125 609.226562 310.449219 611.867188 C 311.039062 613.785156 311.941406 615.007812 313.175781 616.558594 C 315.988281 620.578125 317.1875 625.917969 318.0625 630.664062 C 318.492188 632.917969 319.113281 634.988281 319.894531 637.144531 C 325.375 653.378906 324.820312 672.414062 321.539062 689.035156 C 320.570312 693.480469 319.292969 697.828125 317.925781 702.164062 C 317.554688 703.417969 317.253906 704.667969 316.96875 705.941406 C 316.359375 708.445312 315.292969 710.585938 314.085938 712.851562 C 312.460938 715.984375 310.988281 719.109375 309.660156 722.378906 C 308.46875 725.214844 307.210938 727.527344 305.265625 729.898438 C 304.167969 731.292969 303.269531 732.757812 302.34375 734.273438 C 300.445312 737.300781 298.304688 740.015625 296.003906 742.746094 C 294.902344 744.078125 293.886719 745.429688 292.890625 746.839844 C 291.703125 748.445312 290.476562 749.714844 288.945312 750.992188 C 286.632812 752.980469 284.515625 755.101562 282.394531 757.289062 C 275.132812 764.78125 275.132812 764.78125 270.523438 767.359375 C 268.925781 768.289062 267.488281 769.351562 266.019531 770.472656 C 262.09375 773.445312 258.105469 775.570312 253.546875 777.433594 C 251.339844 778.339844 249.351562 779.285156 247.359375 780.605469 C 244.695312 782.328125 241.917969 783.261719 238.90625 784.199219 L 237.21875 784.738281 C 236.09375 785.097656 234.972656 785.453125 233.847656 785.804688 C 232.519531 786.230469 231.207031 786.683594 229.894531 787.152344 C 222.488281 789.710938 214.832031 790.660156 207.09375 791.703125 L 205.828125 791.890625 C 194.300781 793.542969 182.621094 792.316406 171.191406 790.617188 L 169.570312 790.378906 C 168.03125 790.148438 166.488281 789.910156 164.949219 789.664062 L 163.578125 789.457031 C 160.347656 788.921875 157.351562 787.996094 154.269531 786.902344 L 152.421875 786.304688 C 148.132812 784.917969 143.988281 783.320312 139.863281 781.5 L 138.691406 780.984375 C 133.183594 778.546875 128.078125 775.859375 123.089844 772.484375 C 121.296875 771.269531 121.296875 771.269531 119.417969 770.398438 C 117.53125 769.433594 116.082031 768.3125 114.46875 766.945312 C 112.382812 765.199219 110.289062 763.488281 108.125 761.84375 C 106.175781 760.332031 104.347656 758.683594 102.648438 756.890625 C 99.097656 753.207031 99.097656 753.207031 95.222656 749.878906 C 93.46875 748.335938 92.84375 746.972656 91.84375 744.886719 C 90.859375 743.875 89.855469 742.875 88.84375 741.886719 C 82.898438 735.097656 78.75 727.320312 74.636719 719.347656 C 73.550781 717.25 72.382812 715.21875 71.175781 713.191406 C 69.492188 710.148438 68.886719 707.097656 68.257812 703.703125 C 67.882812 701.898438 67.390625 700.339844 66.710938 698.636719 C 62.914062 688.5625 61.949219 678.746094 62.042969 668.039062 C 62.058594 665.882812 62.042969 663.730469 62.023438 661.578125 C 62.011719 653.230469 62.929688 646 65.433594 638.054688 C 65.667969 636.957031 65.886719 635.855469 66.074219 634.75 C 66.5625 632.105469 67.441406 629.695312 68.40625 627.1875 C 69.058594 625.386719 69.550781 623.582031 70.050781 621.734375 C 71.308594 617.511719 73.390625 613.925781 75.625 610.164062 C 76.605469 608.5 77.335938 606.84375 78.039062 605.042969 C 82.019531 597.992188 87.300781 591.71875 92.441406 585.5 C 93.261719 584.5 94.070312 583.492188 94.867188 582.472656 C 95.882812 581.226562 97 580.085938 98.222656 579.046875 L 99.492188 577.957031 C 100.886719 576.800781 102.308594 575.691406 103.738281 574.582031 C 106.03125 572.777344 108.03125 570.84375 110.039062 568.730469 C 113.414062 565.285156 117.101562 563.015625 121.257812 560.628906 C 122.375 559.90625 123.488281 559.183594 124.597656 558.453125 C 127.960938 556.300781 131.472656 554.5625 135.0625 552.824219 L 138.101562 551.25 C 148.628906 546.007812 160.65625 542.929688 172.277344 541.421875 L 174.007812 541.175781 C 190.792969 538.816406 208.003906 538.757812 224.5 543.222656 " fill-opacity="1" fill-rule="nonzero"/><path fill="#150702" d="M 913.429688 541.308594 L 915.324219 541.433594 C 922.125 541.976562 927.882812 543.851562 933.988281 546.824219 L 936.058594 547.761719 C 940.3125 549.75 943.714844 551.871094 947.082031 555.15625 C 948.382812 556.460938 948.382812 556.460938 949.910156 557.609375 C 952.417969 559.667969 954.222656 562.273438 956.195312 564.828125 L 957.15625 565.992188 C 960.101562 569.644531 962.003906 573.820312 964 578.03125 C 964.285156 578.621094 964.574219 579.207031 964.871094 579.808594 C 966.367188 582.953125 967.480469 586.019531 968.320312 589.398438 C 968.757812 591.066406 969.273438 592.691406 969.8125 594.328125 C 975.363281 611.792969 976.347656 630.082031 977.203125 648.257812 L 977.269531 649.648438 C 977.523438 654.984375 977.730469 660.320312 977.804688 665.660156 L 977.824219 666.925781 C 977.9375 675.457031 977.574219 683.933594 977.054688 692.445312 C 976.992188 693.4375 976.992188 693.4375 976.933594 694.445312 C 976.335938 704.179688 975.476562 713.703125 973.601562 723.28125 L 972.867188 727.308594 C 972.613281 728.65625 972.359375 730 972.101562 731.347656 L 971.757812 733.167969 C 971.046875 736.703125 970.066406 740.015625 968.777344 743.382812 C 968.191406 744.910156 967.667969 746.449219 967.148438 748 C 964.601562 754.984375 960.976562 761.566406 956.796875 767.695312 L 955.972656 768.925781 C 954.433594 771.164062 952.777344 773.050781 950.792969 774.898438 L 949.613281 776.023438 C 946.851562 778.585938 944.070312 780.617188 940.796875 782.472656 C 939.515625 783.226562 938.382812 784.039062 937.214844 784.949219 C 935.054688 786.546875 932.988281 786.914062 930.386719 787.5 L 929.113281 788.351562 C 921.6875 792.429688 910.902344 792.070312 902.683594 791.976562 C 890.25 791.644531 880.101562 789.597656 869.359375 783.078125 C 867.585938 781.839844 866.121094 780.441406 864.660156 778.847656 C 863.734375 777.871094 862.757812 777.066406 861.695312 776.25 C 859.277344 774.253906 857.699219 771.746094 856.007812 769.128906 C 854.832031 767.554688 854.832031 767.554688 852.875 767.003906 L 851.152344 766.496094 L 851.15625 767.972656 C 851.199219 779.8125 851.226562 791.652344 851.246094 803.496094 C 851.253906 809.222656 851.269531 814.949219 851.289062 820.675781 C 851.308594 825.664062 851.320312 830.652344 851.324219 835.644531 C 851.324219 838.289062 851.332031 840.929688 851.34375 843.574219 C 851.355469 846.058594 851.359375 848.546875 851.355469 851.03125 C 851.355469 851.945312 851.359375 852.859375 851.367188 853.773438 C 851.375 855.019531 851.375 856.265625 851.371094 857.507812 L 851.375 859.625 C 851.152344 861.324219 851.152344 861.324219 850.390625 862.449219 C 849.351562 863.125 849.351562 863.125 848.226562 863.355469 L 846.9375 863.355469 L 845.453125 863.371094 L 843.832031 863.359375 L 842.117188 863.371094 C 840.246094 863.378906 838.375 863.371094 836.503906 863.367188 C 835.203125 863.367188 833.90625 863.371094 832.609375 863.371094 C 829.886719 863.375 827.164062 863.371094 824.441406 863.363281 C 820.945312 863.351562 817.453125 863.359375 813.957031 863.367188 C 811.277344 863.375 808.59375 863.371094 805.914062 863.367188 C 804.625 863.367188 803.335938 863.367188 802.046875 863.371094 C 800.246094 863.378906 798.449219 863.371094 796.648438 863.359375 L 795.027344 863.371094 L 793.542969 863.355469 L 792.253906 863.355469 C 791.128906 863.128906 791.128906 863.128906 790.171875 862.527344 C 789.328125 861.328125 789.328125 861.328125 789.105469 859.121094 C 789.09375 858.175781 789.09375 857.226562 789.105469 856.277344 L 789.097656 854.691406 C 789.089844 852.917969 789.097656 851.148438 789.105469 849.375 L 789.097656 845.546875 C 789.089844 842.027344 789.09375 838.507812 789.101562 834.988281 C 789.105469 831.195312 789.101562 827.402344 789.097656 823.613281 C 789.09375 816.609375 789.09375 809.609375 789.101562 802.605469 C 789.109375 793.960938 789.113281 785.320312 789.109375 776.675781 C 789.105469 760.339844 789.113281 744.003906 789.128906 727.667969 C 789.136719 712.21875 789.140625 696.769531 789.136719 681.320312 L 789.136719 671.582031 C 789.136719 657.289062 789.136719 642.996094 789.144531 628.699219 C 789.148438 622.664062 789.148438 616.628906 789.144531 610.59375 C 789.144531 602.8125 789.148438 595.03125 789.15625 587.253906 C 789.160156 583.5 789.164062 579.746094 789.160156 575.992188 C 789.15625 572.558594 789.160156 569.128906 789.167969 565.695312 C 789.171875 564.449219 789.171875 563.207031 789.167969 561.960938 C 789.164062 560.273438 789.167969 558.585938 789.175781 556.898438 L 789.167969 555.425781 C 789.1875 552.746094 789.398438 550.507812 790.527344 548.023438 C 792.328125 546.824219 792.328125 546.824219 794.5625 546.667969 C 795.511719 546.65625 796.460938 546.65625 797.410156 546.660156 L 798.980469 546.648438 C 800.695312 546.640625 802.410156 546.640625 804.128906 546.644531 L 807.699219 546.636719 C 810.199219 546.632812 812.695312 546.628906 815.191406 546.632812 C 818.394531 546.636719 821.597656 546.628906 824.800781 546.613281 C 827.261719 546.605469 829.71875 546.605469 832.179688 546.605469 C 833.359375 546.605469 834.539062 546.601562 835.722656 546.597656 C 837.371094 546.589844 839.019531 546.59375 840.671875 546.601562 L 842.15625 546.585938 C 843.519531 546.597656 843.519531 546.597656 845.75 546.824219 C 846.929688 547.625 846.929688 547.625 847.550781 548.625 C 848.257812 550.742188 848.210938 552.394531 848.191406 554.628906 L 848.183594 555.863281 C 848.175781 557.164062 848.164062 558.464844 848.152344 559.765625 C 848.136719 561.480469 848.125 563.191406 848.113281 564.90625 L 848.09375 567.214844 C 848.023438 568.984375 848.023438 568.984375 848.753906 570.230469 C 849.890625 570.066406 849.890625 570.066406 851.152344 569.632812 C 853.164062 567.851562 854.703125 565.636719 855.992188 563.292969 C 857.878906 559.945312 860.117188 557.582031 863.15625 555.226562 L 864.582031 553.761719 C 870.710938 547.78125 878.984375 544.222656 887.167969 542.019531 C 895.816406 540.136719 904.671875 540.679688 913.429688 541.308594 M 871.5625 589.4375 L 870.214844 589.992188 C 865.96875 592.015625 862.890625 595.265625 860.15625 599.039062 C 857.113281 604.449219 855.464844 610.425781 854.492188 616.519531 L 854.265625 617.929688 C 854.105469 618.925781 853.949219 619.917969 853.792969 620.914062 C 853.632812 621.933594 853.472656 622.953125 853.308594 623.972656 C 853.058594 625.527344 852.816406 627.082031 852.578125 628.636719 L 852.355469 630.011719 C 850.683594 641.304688 851.039062 652.898438 851.042969 664.285156 C 851.042969 665.96875 851.039062 667.652344 851.03125 669.335938 C 850.957031 684.6875 851.144531 700.140625 853.890625 715.289062 L 854.117188 716.566406 C 855.636719 724.957031 858.128906 732.710938 863.53125 739.449219 C 865.390625 741.292969 867.378906 742.617188 869.761719 743.6875 L 871.339844 744.496094 C 876.816406 747.007812 882.128906 747.382812 888.085938 746.882812 C 892.828125 746.257812 897.027344 744.554688 900.972656 741.855469 C 905.070312 738.425781 907.652344 734.542969 909.597656 729.597656 C 917.128906 708.070312 916.996094 683.433594 916.578125 660.859375 L 916.554688 658.976562 C 916.40625 649.457031 915.660156 639.992188 914.855469 630.511719 L 914.707031 628.714844 C 914.5625 627 914.414062 625.285156 914.257812 623.570312 L 914.132812 622.03125 C 913.835938 618.867188 913.179688 615.992188 912.195312 612.96875 C 911.609375 611.105469 911.25 609.203125 910.839844 607.292969 C 909.480469 602.191406 907.007812 598.074219 903.375 594.238281 C 901.472656 592.621094 899.527344 591.285156 897.371094 590.035156 L 895.570312 588.835938 C 888.265625 586.8125 878.597656 586.308594 871.5625 589.4375 M 665.121094 540.777344 C 667.59375 540.703125 670.058594 540.714844 672.53125 540.78125 C 673.660156 540.808594 674.785156 540.828125 675.910156 540.84375 C 684.957031 541.003906 693.132812 542.128906 701.730469 544.835938 L 702.9375 545.207031 C 713.96875 548.679688 724.179688 555.394531 732.304688 563.628906 C 737.546875 569.367188 742.472656 575.996094 744.910156 583.433594 C 745.277344 584.179688 745.65625 584.921875 746.042969 585.65625 C 747.304688 588.140625 748.238281 590.644531 749.074219 593.300781 L 749.53125 594.746094 C 751.363281 600.78125 752.492188 606.976562 753.628906 613.175781 C 753.882812 614.589844 753.882812 614.589844 754.222656 615.734375 C 754.679688 617.789062 754.789062 619.875 754.945312 621.972656 L 755.058594 623.464844 C 755.179688 625.089844 755.296875 626.714844 755.414062 628.335938 L 755.535156 630.019531 C 756.382812 641.890625 756.761719 653.761719 756.914062 665.660156 C 756.925781 666.296875 756.933594 666.929688 756.941406 667.582031 L 756.957031 669.207031 L 756.96875 670.542969 C 756.894531 672.128906 756.523438 673.304688 755.714844 674.664062 C 753.480469 676.152344 751.980469 676.175781 749.351562 676.371094 C 745.238281 676.5625 741.128906 676.539062 737.015625 676.523438 L 733.9375 676.519531 C 731.738281 676.519531 729.539062 676.515625 727.34375 676.511719 C 723.863281 676.503906 720.382812 676.496094 716.90625 676.496094 C 709.519531 676.488281 702.136719 676.480469 694.75 676.464844 C 686.777344 676.453125 678.800781 676.441406 670.824219 676.433594 C 667.371094 676.429688 663.914062 676.425781 660.460938 676.417969 C 658.308594 676.414062 656.15625 676.410156 654.003906 676.410156 C 653.011719 676.40625 652.015625 676.40625 651.023438 676.402344 C 643.5625 676.074219 643.5625 676.074219 636.265625 677.066406 C 634.988281 678.6875 634.988281 678.6875 634.914062 680.144531 L 634.910156 681.636719 L 634.898438 683.339844 L 634.90625 685.179688 L 634.902344 687.089844 C 634.902344 688.429688 634.902344 689.765625 634.910156 691.105469 C 634.914062 693.128906 634.910156 695.148438 634.902344 697.171875 C 634.894531 703.777344 634.96875 710.179688 636.265625 716.679688 L 636.613281 718.5 C 638.445312 727.460938 640.867188 736.214844 646.914062 743.292969 C 649.363281 745.960938 652.046875 748.507812 655.429688 749.90625 C 661.683594 751.839844 667.910156 751.796875 674.304688 750.402344 C 678.035156 749.179688 681.464844 747.585938 684.410156 744.945312 C 686.867188 742.074219 688.53125 738.613281 690.289062 735.285156 L 691.0625 733.925781 C 692.621094 731.089844 693.335938 728.1875 694.054688 725.042969 C 694.433594 723.507812 694.902344 722.09375 695.464844 720.617188 C 696.476562 717.75 696.585938 714.90625 696.703125 711.886719 C 696.898438 709.988281 697.082031 708.703125 698.089844 707.074219 C 700.84375 706.410156 703.589844 706.386719 706.40625 706.386719 L 707.796875 706.382812 C 709.300781 706.378906 710.804688 706.375 712.3125 706.375 L 715.464844 706.367188 C 717.664062 706.363281 719.859375 706.363281 722.058594 706.363281 C 724.875 706.363281 727.6875 706.355469 730.503906 706.34375 C 732.671875 706.339844 734.839844 706.335938 737.007812 706.335938 C 738.046875 706.335938 739.085938 706.335938 740.121094 706.328125 C 741.574219 706.324219 743.023438 706.324219 744.476562 706.328125 C 744.902344 706.324219 745.328125 706.324219 745.769531 706.320312 C 748.144531 706.335938 749.992188 706.578125 752.113281 707.675781 C 752.929688 708.679688 752.929688 708.679688 753.3125 710.078125 C 753.210938 712.074219 753.210938 712.074219 752.863281 714.429688 L 752.484375 717.050781 L 752.289062 718.390625 C 752.128906 719.554688 752.015625 720.726562 751.910156 721.898438 C 751.40625 727.214844 750.257812 732.226562 748.886719 737.386719 L 748.355469 739.40625 C 747.453125 742.683594 746.457031 745.691406 744.84375 748.6875 C 743.886719 750.484375 743.234375 752.40625 742.523438 754.3125 C 741.878906 755.757812 741.074219 756.847656 740.109375 758.09375 L 739.394531 759.703125 C 737.839844 762.546875 735.6875 764.722656 733.503906 767.09375 C 732.789062 767.917969 732.078125 768.742188 731.367188 769.570312 C 730.679688 770.347656 729.992188 771.125 729.304688 771.898438 L 728.363281 772.960938 C 723.171875 778.5 715.414062 783.449219 708.171875 785.699219 C 707.007812 785.980469 705.839844 786.246094 704.664062 786.480469 C 702.804688 786.878906 702.804688 786.878906 700.777344 787.746094 C 682.140625 794.878906 657.960938 793.027344 638.664062 790.003906 C 635.371094 789.414062 632.242188 788.523438 629.0625 787.5 L 626.929688 786.921875 C 617.710938 784.222656 609.226562 778.828125 602.050781 772.496094 L 600.777344 771.460938 C 592.34375 764.480469 586.234375 753.738281 582.246094 743.636719 C 581.277344 740.820312 580.570312 737.941406 579.859375 735.054688 C 579.300781 732.882812 579.300781 732.882812 578.351562 730.9375 C 577.378906 728.695312 576.964844 726.449219 576.652344 724.03125 L 576.464844 722.695312 C 576.339844 721.761719 576.210938 720.828125 576.089844 719.890625 C 575.910156 718.515625 575.71875 717.140625 575.527344 715.765625 C 575.128906 712.871094 574.78125 709.976562 574.441406 707.074219 L 574.261719 705.621094 C 572.863281 693.914062 573.078125 682.148438 573.121094 670.382812 C 573.128906 668.1875 573.128906 665.988281 573.128906 663.792969 C 573.128906 661.644531 573.132812 659.496094 573.136719 657.34375 L 573.140625 654.316406 C 573.15625 637.257812 573.15625 637.257812 574.667969 628.898438 C 574.828125 627.945312 574.992188 626.988281 575.152344 626.03125 L 575.398438 624.5625 C 575.652344 622.984375 575.867188 621.40625 576.074219 619.820312 C 576.875 613.683594 577.898438 607.933594 579.84375 602.039062 L 580.558594 599.78125 C 583.011719 592.117188 586.0625 585.027344 590.046875 578.03125 L 590.933594 576.410156 C 596.324219 567.179688 605.136719 559.175781 614.058594 553.425781 C 615.246094 552.804688 616.449219 552.203125 617.660156 551.625 L 619.308594 550.460938 C 628.59375 544.570312 641.027344 542.046875 651.871094 541.421875 L 653.335938 541.324219 C 657.261719 541.066406 661.1875 540.914062 665.121094 540.777344 M 651.160156 585.566406 C 646.628906 589.179688 642.933594 593.15625 640.46875 598.4375 L 639.824219 599.589844 C 638.210938 602.5 637.421875 605.445312 636.691406 608.683594 C 636.265625 610.441406 636.265625 610.441406 635.636719 612.246094 C 634.582031 615.566406 634.589844 618.988281 634.464844 622.445312 L 634.394531 624.253906 C 634.324219 626.265625 634.277344 628.273438 634.238281 630.285156 L 634.171875 632.277344 L 634.152344 634.171875 L 634.117188 635.867188 C 634.375 637.554688 634.375 637.554688 635.640625 639.03125 C 637.25 640.488281 637.25 640.488281 638.644531 640.726562 C 640.105469 640.832031 641.539062 640.835938 643.003906 640.8125 L 644.679688 640.820312 C 646.503906 640.824219 648.324219 640.804688 650.148438 640.789062 C 651.417969 640.785156 652.6875 640.785156 653.953125 640.785156 C 656.609375 640.78125 659.265625 640.765625 661.925781 640.746094 C 665.332031 640.71875 668.738281 640.710938 672.144531 640.707031 C 674.761719 640.703125 677.378906 640.695312 680 640.683594 C 681.253906 640.679688 682.511719 640.675781 683.765625 640.671875 C 685.519531 640.667969 687.277344 640.652344 689.03125 640.636719 L 690.605469 640.636719 L 692.054688 640.617188 L 693.3125 640.609375 C 694.738281 640.421875 695.671875 640.015625 696.890625 639.253906 C 698.164062 637.652344 698.164062 637.652344 698.191406 636.308594 L 698.121094 635.003906 L 698.042969 633.511719 L 697.941406 631.898438 L 697.84375 630.222656 C 697.734375 628.429688 697.613281 626.640625 697.492188 624.847656 L 697.367188 623.011719 C 697.242188 621.195312 697.109375 619.382812 696.964844 617.570312 L 696.84375 615.894531 C 696.273438 609.109375 694.136719 602.878906 691.488281 596.636719 L 690.746094 594.867188 C 688.824219 590.816406 686.339844 588.320312 682.667969 585.761719 C 679.554688 583.992188 676.359375 583.019531 672.878906 582.234375 L 671.378906 581.890625 C 664.582031 580.730469 657.054688 581.824219 651.160156 585.566406 M 492.207031 544.007812 L 494.300781 544.527344 C 497.996094 545.5 501.328125 546.710938 504.699219 548.519531 C 506.050781 549.242188 507.425781 549.875 508.828125 550.5 C 514.917969 553.542969 520.652344 558 525.222656 563.027344 L 526.347656 564.117188 C 533.207031 571.175781 538.203125 579.839844 542.027344 588.835938 L 542.515625 589.945312 C 547.210938 600.886719 549.113281 614.3125 549.457031 626.160156 L 549.542969 628.289062 C 549.230469 630.25 549.230469 630.25 548.03125 631.847656 C 546.230469 633.25 546.230469 633.25 543.878906 633.632812 C 542.945312 633.648438 542.011719 633.652344 541.078125 633.640625 L 539.527344 633.65625 C 537.839844 633.667969 536.15625 633.660156 534.464844 633.648438 C 533.292969 633.652344 532.117188 633.65625 530.945312 633.660156 C 528.484375 633.664062 526.027344 633.65625 523.566406 633.640625 C 520.417969 633.625 517.265625 633.636719 514.113281 633.652344 C 511.6875 633.664062 509.265625 633.660156 506.839844 633.652344 C 505.679688 633.652344 504.515625 633.652344 503.351562 633.660156 C 501.730469 633.667969 500.105469 633.65625 498.484375 633.640625 L 497.027344 633.65625 C 495.683594 633.632812 495.683594 633.632812 493.410156 633.25 C 491.765625 631.683594 491.125 630.59375 490.40625 628.449219 C 490.316406 627.476562 490.242188 626.5 490.191406 625.523438 C 489.554688 615.300781 488.414062 605.492188 483.132812 596.523438 C 480.410156 592.457031 477.621094 589.347656 473.28125 587.019531 C 467.308594 584.667969 460.71875 584.433594 454.394531 585.234375 C 450.921875 586.101562 447.882812 587.671875 444.789062 589.4375 L 443.34375 590.179688 C 439.726562 592.386719 437.429688 596.265625 435.382812 599.871094 C 429.84375 610.378906 429.191406 622.773438 428.105469 634.402344 C 428.019531 635.269531 427.925781 636.136719 427.824219 637 C 427.21875 642.632812 427.261719 648.277344 427.238281 653.933594 L 427.230469 655.636719 C 427.21875 658.628906 427.210938 661.621094 427.203125 664.609375 C 427.199219 667.035156 427.1875 669.457031 427.167969 671.878906 C 427.074219 684.121094 427.113281 696.269531 428.445312 708.449219 L 428.585938 709.777344 C 429.734375 720.207031 431.292969 732.414062 437.472656 741.136719 L 438.574219 742.554688 L 439.386719 743.6875 L 439.386719 744.886719 L 440.738281 745.378906 C 442.316406 746.058594 443.40625 746.804688 444.75 747.851562 C 448.871094 750.640625 453.449219 751.246094 458.328125 751.679688 C 463.949219 751.875 468.871094 750.832031 473.917969 748.339844 C 477.949219 745.910156 480.910156 742.53125 483.191406 738.429688 C 486.214844 732.570312 487.675781 726.765625 488.605469 720.28125 L 488.957031 718.273438 C 489.496094 715 489.828125 711.839844 489.90625 708.523438 L 489.957031 706.730469 C 489.980469 705.554688 489.992188 704.378906 489.992188 703.203125 L 490.023438 701.558594 L 490.03125 700.09375 C 490.40625 698.671875 490.40625 698.671875 491.605469 697.105469 C 493.40625 695.671875 493.40625 695.671875 494.53125 695.394531 C 495.898438 695.285156 497.242188 695.273438 498.617188 695.292969 L 500.183594 695.28125 C 501.890625 695.269531 503.597656 695.28125 505.304688 695.292969 C 506.492188 695.292969 507.679688 695.292969 508.867188 695.289062 C 511.355469 695.289062 513.839844 695.296875 516.328125 695.3125 C 519.515625 695.332031 522.703125 695.332031 525.894531 695.320312 C 528.34375 695.3125 530.796875 695.316406 533.246094 695.328125 C 534.421875 695.328125 535.597656 695.328125 536.773438 695.324219 C 538.417969 695.324219 540.058594 695.332031 541.703125 695.351562 L 543.175781 695.339844 C 544.535156 695.363281 544.535156 695.363281 546.832031 695.671875 C 548.332031 696.792969 548.332031 696.792969 549.230469 698.074219 C 550.359375 704.34375 548.746094 711.582031 547.890625 717.832031 C 547.660156 719.554688 547.4375 721.28125 547.226562 723.011719 C 546.066406 731.878906 543.90625 739.882812 539.671875 747.820312 C 539.0625 749.015625 538.625 750.179688 538.203125 751.453125 C 537.011719 754.769531 534.976562 757.585938 533.023438 760.492188 L 532.089844 761.976562 C 526.910156 769.914062 519.582031 776.171875 511.414062 780.898438 C 509.882812 781.644531 508.3125 782.292969 506.703125 782.847656 C 505.417969 783.296875 504.285156 783.859375 503.085938 784.5 C 487.113281 792.613281 466.171875 792.34375 448.695312 791.429688 C 432.605469 790.542969 416.617188 788.644531 402.769531 779.699219 C 400.433594 778.054688 398.296875 776.199219 396.167969 774.296875 L 395.023438 773.410156 C 391.519531 770.6875 389.117188 767.082031 386.566406 763.492188 L 385.609375 762.226562 C 382.476562 757.886719 380.425781 752.898438 378.203125 748.054688 C 377.582031 746.738281 376.925781 745.449219 376.253906 744.15625 C 375.292969 742.246094 374.679688 740.421875 374.222656 738.324219 C 373.753906 736.210938 373.199219 734.191406 372.484375 732.148438 C 371.460938 729.140625 370.875 726.105469 370.320312 722.980469 C 370.128906 721.910156 369.933594 720.84375 369.738281 719.773438 L 369.449219 718.1875 C 369.183594 716.8125 368.859375 715.464844 368.523438 714.105469 C 367.6875 710.421875 367.574219 706.671875 367.355469 702.910156 C 367.042969 697.894531 366.714844 692.898438 366.121094 687.90625 C 365.285156 680.882812 364.792969 673.933594 364.957031 666.863281 L 364.980469 665.609375 C 365.511719 640.4375 367.015625 612.226562 378.761719 589.4375 L 379.25 587.449219 C 380.027344 585.035156 381.097656 583.363281 382.542969 581.304688 C 383.617188 579.757812 384.601562 578.171875 385.589844 576.570312 C 390.734375 568.511719 397.671875 560.457031 405.773438 555.226562 L 407.4375 554.097656 C 421.117188 545.199219 437.148438 542.027344 453.234375 541.085938 C 466.390625 540.417969 479.375 540.820312 492.207031 544.007812 " fill-opacity="1" fill-rule="nonzero"/><path fill="#f2014b" d="M 1163.542969 815.375 C 1165.679688 815.710938 1165.679688 815.710938 1167.519531 816.875 C 1169.742188 818.980469 1171.308594 821.507812 1172.882812 824.113281 L 1173.847656 825.613281 C 1176.183594 829.488281 1177.097656 833.09375 1177.855469 837.535156 C 1178.355469 840.066406 1179.199219 842.3125 1180.144531 844.703125 C 1180.933594 847.054688 1181.238281 849.429688 1181.53125 851.886719 C 1181.808594 853.578125 1181.808594 853.578125 1182.8125 855.058594 C 1183.6875 856.523438 1183.6875 856.523438 1183.90625 857.957031 L 1183.875 859.335938 L 1183.867188 860.734375 L 1183.6875 861.925781 L 1182.488281 863.125 C 1180.261719 863.515625 1178.039062 863.460938 1175.902344 862.714844 C 1173.351562 861.371094 1171.453125 859.550781 1169.882812 857.125 C 1169.097656 855.265625 1168.546875 853.363281 1168.007812 851.421875 C 1166.664062 846.601562 1166.664062 846.601562 1164.480469 842.121094 L 1162.679688 841.519531 L 1162.304688 842.496094 C 1155.785156 859.433594 1155.785156 859.433594 1152.460938 862.414062 C 1151.273438 863.125 1151.273438 863.125 1149.550781 863.390625 C 1147.746094 863.136719 1146.367188 862.847656 1144.898438 861.734375 C 1142.308594 858.578125 1141.816406 853.886719 1141.144531 849.960938 C 1140.753906 847.550781 1140.394531 845.132812 1140.066406 842.714844 C 1139.867188 841.492188 1139.585938 840.3125 1139.269531 839.117188 L 1136.269531 839.117188 L 1135.480469 841.257812 C 1133.414062 846.769531 1133.414062 846.769531 1132.058594 849.226562 C 1131.34375 850.789062 1131.078125 852.289062 1130.753906 853.972656 C 1130.121094 856.589844 1129.390625 858.453125 1127.675781 860.539062 C 1126.277344 861.953125 1125.480469 862.519531 1123.589844 863.238281 C 1121.863281 863.125 1121.863281 863.125 1120.210938 862.601562 C 1118.863281 861.324219 1118.863281 861.324219 1118.1875 859.144531 C 1117.425781 855.34375 1117.460938 851.5 1117.472656 847.640625 C 1117.472656 846.363281 1117.460938 845.085938 1117.445312 843.808594 C 1117.417969 838.289062 1117.996094 833.699219 1120.4375 828.726562 C 1122.058594 826.894531 1123.558594 826.140625 1125.714844 825.050781 C 1128.253906 823.515625 1130.296875 821.46875 1132.4375 819.4375 C 1133.867188 818.113281 1133.867188 818.113281 1135.667969 816.910156 C 1137.527344 816.664062 1138.683594 816.546875 1140.46875 816.910156 C 1142.234375 817.832031 1143.449219 818.945312 1144.671875 820.511719 C 1146.578125 824.167969 1147.0625 828.546875 1147.824219 832.550781 L 1148.273438 834.316406 L 1149.472656 835.519531 C 1151.035156 835.324219 1151.035156 835.324219 1152.476562 834.917969 L 1152.570312 833.679688 C 1153.042969 829.617188 1154.164062 826.25 1155.964844 822.613281 L 1156.566406 821.375 C 1157.554688 819.464844 1158.433594 818.152344 1160.007812 816.652344 C 1161.480469 815.710938 1161.480469 815.710938 1163.542969 815.375 M 1017.289062 779.328125 C 1019.011719 780.371094 1020.613281 781.492188 1022.222656 782.699219 L 1023.867188 783.902344 C 1026.898438 786.34375 1028.628906 788.511719 1030.0625 792.152344 C 1031.191406 795.472656 1032.1875 798.96875 1032.152344 802.503906 C 1031.828125 803.707031 1031.828125 803.707031 1030.882812 804.816406 C 1029.605469 805.84375 1028.527344 806.644531 1027.023438 807.308594 C 1025.058594 807.402344 1025.058594 807.402344 1023.421875 807.308594 L 1022.410156 805.480469 C 1021.207031 803.320312 1019.992188 801.164062 1018.765625 799.015625 C 1018.289062 798.175781 1017.8125 797.335938 1017.34375 796.492188 C 1016.726562 795.40625 1016.101562 794.320312 1015.46875 793.242188 L 1014.371094 791.332031 C 1013.335938 789.804688 1013.335938 789.804688 1011.726562 789.320312 C 1010.25 789.246094 1010.25 789.246094 1008.96875 789.566406 C 1007.109375 791.078125 1006.441406 793.078125 1005.566406 795.265625 L 1005.003906 796.65625 C 1003.804688 799.792969 1003.183594 802.546875 1003.351562 805.929688 C 1003.660156 807.542969 1004.054688 808.847656 1004.816406 810.308594 C 1006.359375 811.394531 1007.46875 811.535156 1009.371094 811.726562 C 1010.226562 811.765625 1011.082031 811.796875 1011.941406 811.824219 L 1014.75 811.953125 C 1016.21875 812.015625 1017.6875 812.074219 1019.15625 812.128906 C 1020.578125 812.183594 1022 812.246094 1023.421875 812.3125 L 1024.742188 812.355469 C 1026.699219 812.449219 1028.167969 812.683594 1029.949219 813.523438 C 1031.226562 814.511719 1031.226562 814.511719 1032.425781 816.3125 C 1032.5 818.226562 1032.5 818.226562 1032.425781 819.914062 C 1032.070312 820.023438 1031.714844 820.132812 1031.351562 820.242188 L 1029.914062 820.699219 L 1028.5 821.144531 C 1026.984375 821.652344 1026.984375 821.652344 1025.726562 822.675781 C 1023.148438 823.945312 1020.703125 823.65625 1017.871094 823.550781 C 1011.839844 823.328125 1011.839844 823.328125 1006.015625 824.714844 C 1004.945312 825.480469 1004.945312 825.480469 1004.214844 826.515625 C 1003.957031 829.738281 1004.371094 832.761719 1004.855469 835.945312 C 1005.703125 841.535156 1006.207031 847.042969 1006.242188 852.699219 L 1006.265625 854.453125 C 1006.25 856.84375 1006.179688 858.558594 1005.203125 860.765625 C 1004.214844 861.925781 1004.214844 861.925781 1002.566406 862.75 C 1000.289062 863.191406 998.660156 863.078125 996.410156 862.527344 C 995.445312 861.820312 995.445312 861.820312 994.609375 860.726562 C 992.351562 853.980469 992.324219 846.480469 991.867188 839.449219 L 991.734375 837.472656 C 991.652344 836.15625 991.574219 834.839844 991.507812 833.519531 C 991.46875 832.890625 991.429688 832.257812 991.390625 831.605469 L 991.296875 829.902344 C 990.957031 828.019531 990.347656 826.847656 989.210938 825.3125 C 987.277344 824.542969 987.277344 824.542969 985.082031 824.113281 C 982.535156 823.550781 981.074219 823.136719 979.054688 821.453125 C 977.804688 819.914062 977.804688 819.914062 977.503906 818.035156 C 977.804688 816.3125 977.804688 816.3125 978.585938 815.359375 C 980.589844 813.691406 983.316406 813.070312 985.765625 812.261719 C 986.933594 811.859375 988.074219 811.386719 989.210938 810.910156 C 989.816406 809.085938 989.945312 807.664062 990.046875 805.75 L 990.171875 803.726562 C 990.253906 802.332031 990.332031 800.9375 990.402344 799.542969 C 990.746094 794.199219 991.957031 789.753906 994.386719 784.988281 C 996.582031 782.386719 998.886719 780.261719 1001.8125 778.5 C 1006.980469 776.695312 1012.382812 776.890625 1017.289062 779.328125 M 1298.035156 815.375 L 1300.136719 815.710938 C 1301.617188 817.214844 1302.445312 818.453125 1303.144531 820.445312 C 1304.507812 827.179688 1304.71875 833.875 1304.828125 840.730469 C 1304.863281 842.734375 1304.914062 844.738281 1304.96875 846.742188 C 1304.996094 848.027344 1305.019531 849.3125 1305.046875 850.597656 L 1305.09375 852.394531 C 1305.136719 855.863281 1304.8125 858.269531 1303.136719 861.324219 L 1301.9375 862.527344 C 1299.488281 862.941406 1297.175781 862.964844 1294.734375 862.527344 C 1293.527344 861.519531 1292.847656 860.605469 1292.078125 859.242188 L 1291.132812 858.324219 C 1288.015625 857.886719 1285.652344 858.648438 1282.808594 859.789062 L 1281.378906 860.386719 L 1278.515625 861.546875 L 1277.253906 862.074219 C 1273.859375 863.4375 1270.664062 863.261719 1267.046875 863.277344 L 1265.039062 863.316406 C 1261.027344 863.332031 1257.582031 863.042969 1253.917969 861.324219 C 1251.605469 859.875 1250.183594 857.90625 1248.789062 855.585938 C 1246.710938 851.300781 1246.316406 847.253906 1246.542969 842.574219 C 1247.015625 836.28125 1248.859375 831.953125 1252.117188 826.515625 L 1253.074219 824.808594 C 1254.488281 822.5 1255.765625 820.878906 1258.035156 819.363281 C 1261.121094 817.742188 1264.179688 816.242188 1267.722656 816.3125 C 1269.867188 816.992188 1271.398438 817.625 1273.050781 819.164062 C 1274.023438 821.109375 1274.324219 822.527344 1274.324219 824.714844 C 1272.417969 827.804688 1269.578125 829.769531 1266.742188 831.988281 C 1264.558594 833.722656 1262.792969 835.417969 1261.230469 837.730469 C 1260.421875 839.992188 1260.117188 841.835938 1260.195312 844.234375 C 1260.578125 845.984375 1261.132812 846.859375 1262.320312 848.195312 C 1263.960938 849.574219 1264.734375 849.925781 1266.898438 850.371094 C 1272.265625 849.863281 1277.433594 846.890625 1282.253906 844.640625 C 1285.144531 843.394531 1288.128906 842.457031 1291.132812 841.519531 C 1291.957031 836.039062 1292.480469 830.722656 1292.289062 825.171875 C 1292.222656 822.558594 1292.527344 820.527344 1293.53125 818.113281 C 1294.945312 816.125 1295.601562 815.765625 1298.035156 815.375 M 1228.707031 813.910156 C 1230.058594 814.875 1230.527344 815.753906 1231.234375 817.265625 C 1233.042969 822.464844 1234.050781 827.609375 1234.933594 833.042969 C 1236.050781 839.835938 1237.320312 847.429688 1241.71875 853 C 1242.511719 854.125 1242.511719 854.125 1242.792969 855.566406 C 1242.8125 857.128906 1242.765625 858.582031 1242.511719 860.125 C 1241.425781 862 1241.425781 862 1239.511719 863.125 C 1237.230469 863.539062 1235.1875 863.554688 1232.90625 863.125 C 1231.144531 861.851562 1231.144531 861.851562 1229.90625 860.125 L 1228.632812 858.511719 C 1227.640625 856.761719 1227.15625 855.4375 1226.644531 853.523438 C 1226.089844 851.535156 1225.527344 850.011719 1224.242188 848.382812 C 1222.855469 846.875 1222.855469 846.875 1221.316406 846.394531 L 1220.300781 846.320312 L 1219.84375 847.617188 C 1218.019531 851.804688 1214.765625 855.964844 1211.300781 858.925781 C 1206.675781 862.265625 1206.675781 862.265625 1204.097656 863.125 C 1202.425781 863.230469 1200.78125 863.292969 1199.105469 863.316406 L 1197.746094 863.367188 C 1195.292969 863.394531 1194.050781 863.214844 1191.832031 862.011719 C 1190.289062 860.726562 1190.289062 860.726562 1189.203125 859.148438 C 1187.984375 855.6875 1187.574219 852.210938 1188.191406 848.570312 C 1190.050781 841.585938 1194.207031 835.652344 1198.695312 830.117188 L 1199.65625 828.8125 C 1202.675781 824.941406 1206.796875 822.585938 1210.890625 819.988281 C 1212.019531 819.253906 1212.019531 819.253906 1213.445312 818.035156 C 1217.464844 814.929688 1223.609375 812.730469 1228.707031 813.910156 M 1212.5 831.917969 C 1209.546875 834.800781 1207.625 838.136719 1205.605469 841.714844 C 1204.945312 842.875 1204.238281 844.011719 1203.496094 845.121094 C 1203.679688 846.414062 1203.679688 846.414062 1204.097656 847.523438 C 1205.199219 847.984375 1205.199219 847.984375 1206.496094 848.121094 C 1207.585938 847.382812 1207.585938 847.382812 1208.296875 846.320312 L 1208.296875 845.121094 L 1209.339844 844.714844 C 1212.148438 843.074219 1213.894531 840.085938 1215.5 837.316406 C 1215.917969 835.648438 1215.832031 834.835938 1215.5 833.117188 L 1214.902344 831.917969 Z M 1388.371094 807.910156 C 1390.574219 809.714844 1392.128906 811.820312 1393.398438 814.359375 C 1393.730469 816.089844 1393.859375 817.671875 1393.960938 819.425781 C 1394.222656 823.222656 1395.148438 826.679688 1396.164062 830.328125 C 1397.589844 835.527344 1398.546875 840.792969 1399.5 846.09375 C 1399.773438 847.511719 1400.097656 848.910156 1400.433594 850.316406 C 1400.964844 852.675781 1401.15625 854.921875 1401.164062 857.351562 L 1401.195312 859.503906 C 1400.976562 861.324219 1400.976562 861.324219 1400.210938 862.464844 C 1399.175781 863.125 1399.175781 863.125 1396.847656 863.316406 C 1394.800781 863.230469 1393.199219 862.917969 1391.371094 861.925781 C 1389.140625 860.050781 1388.308594 857.625 1387.246094 854.972656 C 1386.25 851.957031 1385.867188 848.964844 1385.515625 845.816406 C 1385.214844 843.152344 1384.863281 840.5 1384.507812 837.84375 L 1384.304688 836.183594 C 1384.019531 834.050781 1383.75 832.285156 1382.796875 830.347656 C 1381.789062 829.398438 1381.789062 829.398438 1380.285156 829.242188 C 1378.75 829.402344 1378.75 829.402344 1377.660156 830.332031 C 1374.484375 834.070312 1372.511719 838.078125 1370.964844 842.71875 C 1370.90625 843.820312 1370.855469 844.917969 1370.820312 846.019531 C 1370.671875 850.359375 1370.300781 853.949219 1367.960938 857.726562 L 1366.875 859.488281 C 1365.5625 860.726562 1365.5625 860.726562 1363.535156 861.664062 L 1361.359375 861.925781 C 1359.246094 860.828125 1357.511719 859.527344 1355.957031 857.726562 C 1353.582031 851.535156 1354.675781 843.605469 1355.648438 837.214844 C 1355.984375 835.253906 1356.351562 833.300781 1356.746094 831.351562 L 1357.109375 829.492188 C 1357.660156 826.941406 1358.148438 825.039062 1359.585938 822.835938 C 1360.757812 821.714844 1360.757812 821.714844 1361.960938 821.113281 C 1363.007812 821.023438 1364.058594 820.945312 1365.113281 820.886719 C 1367.875 820.644531 1369.828125 820.304688 1372.164062 818.710938 C 1374.5 816.648438 1376.507812 814.347656 1378.503906 811.960938 C 1379.765625 810.511719 1380.746094 809.589844 1382.367188 808.507812 C 1384.65625 807.746094 1385.976562 807.445312 1388.371094 807.910156 M 1056.585938 816.574219 C 1059.496094 818.285156 1061.660156 820.8125 1063.640625 823.515625 C 1064.464844 825.238281 1064.464844 825.238281 1064.839844 827.113281 L 1065.1875 828.445312 C 1066.578125 834.40625 1066.3125 841.097656 1064.800781 847.035156 C 1063.171875 851.613281 1060.875 856.464844 1057.253906 859.773438 C 1055.226562 861.214844 1053.398438 862.339844 1051.035156 863.125 C 1049.199219 863.277344 1047.359375 863.265625 1045.519531 863.277344 L 1044.019531 863.316406 C 1040.625 863.335938 1037.871094 862.867188 1034.828125 861.324219 C 1032.417969 859.722656 1030.503906 857.84375 1028.898438 855.4375 C 1026.386719 848.3125 1025.960938 839.769531 1027.265625 832.34375 C 1027.890625 829.847656 1028.84375 827.589844 1030.027344 825.3125 L 1030.773438 823.867188 C 1032.414062 821.265625 1034.382812 819.929688 1037.078125 818.488281 C 1042.828125 815.882812 1050.507812 813.964844 1056.585938 816.574219 M 1046.496094 828.351562 C 1044.257812 829.613281 1043.382812 830.351562 1042.03125 832.515625 C 1040.585938 835.074219 1039.179688 837.597656 1038.890625 840.558594 C 1039.144531 843.863281 1040.300781 847.101562 1042.03125 849.921875 L 1043.832031 851.121094 C 1045.878906 851.160156 1045.878906 851.160156 1048.03125 850.523438 C 1050.015625 849.191406 1051.328125 847.996094 1052.625 845.992188 C 1053.703125 843.230469 1053.699219 840.816406 1053.660156 837.882812 L 1053.679688 836.273438 C 1053.671875 833.914062 1053.59375 832.265625 1052.605469 830.101562 C 1051.675781 828.847656 1051.675781 828.847656 1050.285156 828.015625 C 1048.535156 827.570312 1048.535156 827.570312 1046.496094 828.351562 M 1341.550781 816.910156 C 1344.171875 818.296875 1345.820312 819.851562 1347.414062 822.296875 L 1348.15625 823.515625 C 1348.4375 823.945312 1348.71875 824.378906 1349.007812 824.824219 C 1350.730469 827.773438 1351.367188 830.179688 1351.417969 833.605469 C 1351.203125 839.074219 1350.898438 844.492188 1348.15625 849.320312 C 1347.867188 850.21875 1347.59375 851.121094 1347.328125 852.023438 C 1346.472656 854.617188 1345.347656 856.460938 1343.351562 858.324219 L 1342.113281 859.613281 C 1340.367188 861.171875 1338.898438 862.175781 1336.75 863.125 C 1331.386719 864.054688 1325.617188 863.761719 1320.5 861.882812 C 1318.191406 860.773438 1317.039062 858.984375 1315.578125 856.957031 C 1313.441406 853.597656 1312.25 850.953125 1311.976562 846.929688 C 1311.929688 844.722656 1311.992188 842.527344 1312.089844 840.324219 C 1312.132812 839.28125 1312.136719 838.238281 1312.136719 837.199219 C 1312.257812 832.1875 1313.933594 827.703125 1316.300781 823.332031 C 1318.082031 820.503906 1320.640625 819.015625 1323.515625 817.492188 C 1329.0625 814.898438 1335.828125 814.9375 1341.550781 816.910156 M 1330.746094 828.316406 C 1329.085938 829.527344 1329.085938 829.527344 1327.746094 831.316406 L 1326.914062 832.21875 C 1325.597656 833.78125 1324.847656 835.082031 1324.382812 837.085938 C 1323.964844 840.640625 1324.09375 843.5625 1325.34375 846.921875 C 1326.21875 848.566406 1326.878906 849.246094 1328.347656 850.523438 C 1330.042969 850.96875 1331.445312 850.925781 1333.148438 850.523438 C 1335.683594 849.023438 1337.054688 847.027344 1338.550781 844.519531 C 1339.265625 842.375 1339.273438 840.589844 1339.300781 838.332031 L 1339.347656 835.976562 C 1339.140625 833.578125 1338.585938 832.160156 1337.351562 830.117188 C 1336.355469 828.921875 1336.355469 828.921875 1334.949219 828.316406 C 1332.875 827.914062 1332.875 827.914062 1330.746094 828.316406 M 1106.855469 814.285156 L 1109.03125 814.273438 C 1111.1875 814.527344 1112.320312 815.050781 1114.058594 816.3125 L 1114.660156 816.910156 C 1114.847656 818.863281 1114.847656 818.863281 1114.660156 821.113281 C 1113.054688 823.527344 1111.304688 824.84375 1108.84375 826.328125 C 1101.371094 831.226562 1097.644531 837.960938 1093.652344 845.722656 L 1092.988281 846.96875 C 1092.285156 848.472656 1092.183594 849.855469 1092 851.496094 C 1091.414062 855.324219 1090.03125 858.28125 1087.648438 861.324219 C 1085.847656 862.527344 1085.847656 862.527344 1084.121094 862.789062 L 1082.246094 862.527344 C 1080.671875 861.214844 1080.671875 861.214844 1079.246094 859.527344 L 1078.054688 858.238281 C 1076.515625 856.058594 1075.925781 853.984375 1075.269531 851.421875 L 1074.882812 849.960938 C 1073.28125 843.714844 1072.53125 837.722656 1072.417969 831.277344 L 1072.371094 829.609375 C 1072.367188 828.140625 1072.398438 826.765625 1072.644531 825.3125 C 1073.734375 823.753906 1073.734375 823.753906 1075.042969 822.914062 C 1076.996094 822.726562 1076.996094 822.726562 1079.246094 823.515625 C 1081.339844 825.4375 1083.367188 827.554688 1084.648438 830.117188 C 1086.023438 830.136719 1086.023438 830.136719 1087.648438 829.515625 C 1089.527344 827.773438 1090.972656 825.769531 1092.300781 823.589844 C 1095.867188 818.632812 1100.566406 814.246094 1106.855469 814.285156 M 1344.003906 776.988281 C 1345.152344 777.296875 1345.152344 777.296875 1346.691406 778.535156 C 1347.554688 780.300781 1347.554688 780.300781 1347.816406 782.398438 C 1347.53125 784.675781 1347.019531 785.625 1345.753906 787.5 C 1344.925781 788.484375 1344.074219 789.449219 1343.203125 790.390625 C 1341.546875 792.195312 1339.914062 794.003906 1338.324219 795.867188 C 1334.167969 800.632812 1329.589844 805.042969 1324.746094 809.109375 L 1323.132812 810.535156 C 1321.742188 811.511719 1321.742188 811.511719 1320.242188 812.148438 L 1318.742188 812.109375 C 1316.890625 810.6875 1315.90625 809.460938 1314.917969 807.347656 C 1314.46875 805.160156 1314.46875 804.046875 1315.140625 801.90625 C 1317.164062 798.160156 1319.933594 795.058594 1322.808594 791.949219 C 1323.992188 790.667969 1325.121094 789.359375 1326.246094 788.027344 C 1330.632812 783.023438 1336.796875 776.425781 1344.003906 776.988281 M 1296.871094 793.902344 C 1298.585938 793.878906 1300.230469 793.902344 1301.9375 794.105469 L 1303.550781 795.042969 C 1304.335938 796.503906 1304.335938 796.503906 1304.636719 798.566406 C 1304.335938 800.707031 1304.335938 800.707031 1303.285156 802.394531 C 1301.234375 804.386719 1301.234375 804.386719 1299.535156 804.90625 C 1297.765625 805.074219 1296.449219 805.175781 1294.734375 804.90625 C 1292.96875 803.96875 1292.96875 803.96875 1291.730469 802.507812 C 1291.09375 800.445312 1291.09375 800.445312 1291.132812 798.304688 C 1292.566406 796 1294.066406 794.269531 1296.871094 793.902344 " fill-opacity="1" fill-rule="nonzero"/></svg>