<svg xmlns="http://www.w3.org/2000/svg" xmlns:xlink="http://www.w3.org/1999/xlink" width="2000" zoomAndPan="magnify" viewBox="0 0 1500 1499.999933" height="2000" preserveAspectRatio="xMidYMid meet" version="1.0"><defs><g/></defs><g fill="#000000" fill-opacity="1"><g transform="translate(418.406925, 764.999914)"><g><path d="M 3.546875 0 L 3.546875 -30.5625 L 7.40625 -30.5625 L 7.40625 -3.40625 L 21.671875 -3.40625 L 21.671875 0 Z M 3.546875 0 "/></g></g><g transform="translate(441.867861, 764.999914)"><g><path d="M 3.09375 0 L 3.09375 -22.640625 L 6.75 -22.640625 L 6.75 0 Z M 4.921875 -26.5 C 4.234375 -26.5 3.640625 -26.738281 3.140625 -27.21875 C 2.640625 -27.695312 2.390625 -28.269531 2.390625 -28.9375 C 2.390625 -29.601562 2.640625 -30.171875 3.140625 -30.640625 C 3.640625 -31.117188 4.234375 -31.359375 4.921875 -31.359375 C 5.617188 -31.359375 6.210938 -31.117188 6.703125 -30.640625 C 7.203125 -30.171875 7.453125 -29.601562 7.453125 -28.9375 C 7.453125 -28.269531 7.203125 -27.695312 6.703125 -27.21875 C 6.210938 -26.738281 5.617188 -26.5 4.921875 -26.5 Z M 4.921875 -26.5 "/></g></g><g transform="translate(451.71161, 764.999914)"><g><path d="M 13.65625 0.46875 C 12.332031 0.46875 11.226562 0.25 10.34375 -0.1875 C 9.46875 -0.632812 8.757812 -1.164062 8.21875 -1.78125 C 7.6875 -2.394531 7.265625 -2.960938 6.953125 -3.484375 L 6.625 -3.484375 L 6.625 0 L 3.09375 0 L 3.09375 -30.5625 L 6.75 -30.5625 L 6.75 -19.078125 L 6.96875 -19.078125 C 7.269531 -19.578125 7.679688 -20.128906 8.203125 -20.734375 C 8.722656 -21.335938 9.414062 -21.859375 10.28125 -22.296875 C 11.15625 -22.742188 12.273438 -22.96875 13.640625 -22.96875 C 15.554688 -22.96875 17.234375 -22.488281 18.671875 -21.53125 C 20.117188 -20.570312 21.25 -19.21875 22.0625 -17.46875 C 22.882812 -15.71875 23.296875 -13.65625 23.296875 -11.28125 C 23.296875 -8.882812 22.890625 -6.804688 22.078125 -5.046875 C 21.265625 -3.296875 20.132812 -1.9375 18.6875 -0.96875 C 17.25 -0.0078125 15.570312 0.46875 13.65625 0.46875 Z M 13.109375 -2.796875 C 14.503906 -2.796875 15.679688 -3.160156 16.640625 -3.890625 C 17.609375 -4.628906 18.335938 -5.640625 18.828125 -6.921875 C 19.328125 -8.210938 19.578125 -9.671875 19.578125 -11.296875 C 19.578125 -12.921875 19.332031 -14.363281 18.84375 -15.625 C 18.351562 -16.894531 17.625 -17.890625 16.65625 -18.609375 C 15.695312 -19.335938 14.515625 -19.703125 13.109375 -19.703125 C 11.710938 -19.703125 10.535156 -19.347656 9.578125 -18.640625 C 8.617188 -17.941406 7.890625 -16.960938 7.390625 -15.703125 C 6.890625 -14.453125 6.640625 -12.984375 6.640625 -11.296875 C 6.640625 -9.617188 6.890625 -8.140625 7.390625 -6.859375 C 7.890625 -5.578125 8.625 -4.578125 9.59375 -3.859375 C 10.5625 -3.148438 11.734375 -2.796875 13.109375 -2.796875 Z M 13.109375 -2.796875 "/></g></g><g transform="translate(476.997741, 764.999914)"><g><path d="M 3.09375 0 L 3.09375 -22.640625 L 6.609375 -22.640625 L 6.609375 -19.15625 L 6.8125 -19.15625 C 7.226562 -20.300781 7.957031 -21.222656 9 -21.921875 C 10.039062 -22.617188 11.238281 -22.96875 12.59375 -22.96875 C 12.875 -22.96875 13.191406 -22.957031 13.546875 -22.9375 C 13.910156 -22.925781 14.1875 -22.914062 14.375 -22.90625 L 14.375 -19.234375 C 14.269531 -19.265625 14 -19.304688 13.5625 -19.359375 C 13.132812 -19.410156 12.675781 -19.4375 12.1875 -19.4375 C 11.15625 -19.4375 10.222656 -19.21875 9.390625 -18.78125 C 8.566406 -18.34375 7.921875 -17.726562 7.453125 -16.9375 C 6.984375 -16.144531 6.75 -15.207031 6.75 -14.125 L 6.75 0 Z M 3.09375 0 "/></g></g></g><g fill="#000000" fill-opacity="1"><g transform="translate(491.660825, 764.999914)"><g><path d="M 12.34375 0.5 C 10.28125 0.5 8.472656 0.0078125 6.921875 -0.96875 C 5.367188 -1.945312 4.15625 -3.316406 3.28125 -5.078125 C 2.414062 -6.847656 1.984375 -8.890625 1.984375 -11.203125 C 1.984375 -13.546875 2.414062 -15.601562 3.28125 -17.375 C 4.15625 -19.144531 5.367188 -20.519531 6.921875 -21.5 C 8.472656 -22.476562 10.28125 -22.96875 12.34375 -22.96875 C 14.40625 -22.96875 16.21875 -22.476562 17.78125 -21.5 C 19.34375 -20.519531 20.554688 -19.144531 21.421875 -17.375 C 22.285156 -15.601562 22.71875 -13.546875 22.71875 -11.203125 C 22.71875 -8.890625 22.285156 -6.847656 21.421875 -5.078125 C 20.554688 -3.316406 19.34375 -1.945312 17.78125 -0.96875 C 16.21875 0.0078125 14.40625 0.5 12.34375 0.5 Z M 12.34375 -2.765625 C 13.851562 -2.765625 15.101562 -3.144531 16.09375 -3.90625 C 17.082031 -4.675781 17.816406 -5.703125 18.296875 -6.984375 C 18.785156 -8.265625 19.03125 -9.671875 19.03125 -11.203125 C 19.03125 -12.742188 18.785156 -14.160156 18.296875 -15.453125 C 17.816406 -16.742188 17.082031 -17.773438 16.09375 -18.546875 C 15.101562 -19.316406 13.851562 -19.703125 12.34375 -19.703125 C 10.851562 -19.703125 9.613281 -19.316406 8.625 -18.546875 C 7.644531 -17.773438 6.910156 -16.742188 6.421875 -15.453125 C 5.929688 -14.171875 5.6875 -12.753906 5.6875 -11.203125 C 5.6875 -9.671875 5.929688 -8.265625 6.421875 -6.984375 C 6.910156 -5.703125 7.644531 -4.675781 8.625 -3.90625 C 9.601562 -3.144531 10.84375 -2.765625 12.34375 -2.765625 Z M 12.34375 -2.765625 "/></g></g></g><path fill="#1d4ed8" d="M 1049.726562 279 C 946.105469 279 841.628906 307.261719 750 364.636719 C 658.367188 307.261719 553.894531 279 450.273438 279 C 346.652344 279 242.175781 307.261719 150.546875 364.636719 L 150.546875 1149.921875 C 150.546875 1173.898438 170.242188 1192.738281 192.507812 1192.738281 C 198.5 1192.738281 204.496094 1191.027344 210.492188 1188.457031 C 286.707031 1153.347656 368.0625 1135.363281 450.273438 1135.363281 C 553.894531 1135.363281 658.367188 1163.625 750 1221 C 841.628906 1163.625 946.105469 1135.363281 1049.726562 1135.363281 C 1131.9375 1135.363281 1213.292969 1153.347656 1289.507812 1188.457031 C 1295.503906 1191.027344 1301.5 1192.738281 1307.492188 1192.738281 C 1329.757812 1192.738281 1349.453125 1173.898438 1349.453125 1149.921875 L 1349.453125 364.636719 C 1257.824219 307.261719 1153.347656 279 1049.726562 279 Z M 1263.816406 1085.695312 C 1195.308594 1061.714844 1122.519531 1049.726562 1049.726562 1049.726562 C 945.25 1049.726562 842.488281 1074.5625 750 1122.519531 L 750 465.6875 L 795.386719 437.425781 C 871.605469 389.472656 959.808594 364.636719 1049.726562 364.636719 C 1124.230469 364.636719 1197.878906 381.761719 1263.816406 415.160156 Z M 1263.816406 1085.695312 " fill-opacity="1" fill-rule="nonzero"/></svg>